<svg width="30" height="30" viewBox="0 0 30 30" fill="none" xmlns="http://www.w3.org/2000/svg">
<g clip-path="url(#clip0_2_686)">
<path d="M27.5 6.25H21.25V4.99996C21.25 3.62119 20.1288 2.49994 18.75 2.49994H11.25C9.87123 2.49994 8.74998 3.62113 8.74998 4.99996V6.24994H2.50002C1.12119 6.25 0 7.3712 0 8.74997V12.5C0 13.8788 1.12119 15 2.50002 15H12.5V14.375C12.5 14.0295 12.7796 13.75 13.1251 13.75H16.8751C17.2205 13.75 17.5001 14.0295 17.5001 14.375V15H27.5001C28.8788 15 30 13.8788 30 12.5V8.74997C30 7.3712 28.8788 6.25 27.5 6.25ZM18.75 6.25H11.25V4.99996H18.75V6.25Z" fill="#FFBB38"/>
<path d="M29.6533 15.6744C29.4403 15.5688 29.1858 15.5933 28.9978 15.736C28.5534 16.0724 28.0358 16.25 27.4999 16.25H17.5V18.125C17.5 18.4704 17.2205 18.75 16.875 18.75H13.125C12.7795 18.75 12.5 18.4704 12.5 18.125V16.25H2.50002C1.96412 16.25 1.44656 16.0724 1.00219 15.736C0.813574 15.592 0.559687 15.5676 0.346641 15.6744C0.134297 15.78 0 15.9967 0 16.2342V25C0 26.3788 1.12119 27.5 2.50002 27.5H27.5C28.8788 27.5 30.0001 26.3789 30.0001 25V16.2342C30 15.9967 29.8657 15.78 29.6533 15.6744Z" fill="#FFBB38"/>
</g>
<defs>
<clipPath id="clip0_2_686">
<rect width="30" height="30" fill="white"/>
</clipPath>
</defs>
</svg>
