<svg width="30" height="30" viewBox="0 0 30 30" fill="none" xmlns="http://www.w3.org/2000/svg">
<g clip-path="url(#clip0_2_700)">
<path d="M29.9768 5.22372C29.8492 3.77364 28.0888 3.12799 27.0585 4.15854L25.5867 5.63036C25.2576 5.95942 24.7173 5.96481 24.3822 5.64231C24.0346 5.30768 24.0526 4.73118 24.3943 4.38946L25.842 2.94184C26.8714 1.91241 26.2284 0.15143 24.7772 0.0236373C20.8327 -0.323179 17.7041 3.3452 18.7502 7.23512L0.83197 25.1533C-0.277561 26.2628 -0.277737 28.0588 0.83197 29.1685C1.93898 30.2754 3.74009 30.2755 4.84711 29.1685L22.7607 11.2548C26.6041 12.2999 30.3273 9.20411 29.9768 5.22372Z" fill="#16DBCC"/>
<path d="M1.87449 6.88232C1.9165 6.96517 1.97135 7.04087 2.03703 7.10655L4.58047 9.64993C4.92371 9.99318 5.48017 9.99312 5.82336 9.64993L7.11682 8.35648L9.58701 10.8267L6.94613 13.4675C6.26182 14.153 6.2624 15.268 6.94672 15.9529L7.22387 16.2301L16.2375 7.217L15.9604 6.93986C15.2725 6.2532 14.1626 6.2522 13.4738 6.93986L10.8299 9.58372L8.35971 7.11353L9.65316 5.82007C9.99641 5.47689 9.99641 4.92036 9.65316 4.57718L7.10978 2.03374C7.0434 1.9673 6.96676 1.91198 6.88285 1.86986L3.63195 0.23673C3.29328 0.0665741 2.88394 0.132609 2.61594 0.400617L0.394647 2.62185C0.125936 2.89056 0.0603697 3.30148 0.232108 3.6405L1.87449 6.88232Z" fill="#16DBCC"/>
<path d="M21.3823 15.1198L15.126 21.3762L22.311 28.5629C24.0394 30.2914 26.8378 30.2919 28.5667 28.5629C30.2917 26.838 30.2917 24.0315 28.5667 22.3072L21.3823 15.1198ZM26.5307 26.5251C26.1897 26.8673 25.6318 26.8689 25.288 26.5251L20.2996 21.5367C19.9562 21.1933 19.9562 20.6368 20.2996 20.294C20.6429 19.9506 21.1995 19.9506 21.5423 20.294L26.5307 25.2824C26.874 25.6258 26.874 26.1818 26.5307 26.5251Z" fill="#16DBCC"/>
</g>
<defs>
<clipPath id="clip0_2_700">
<rect width="30" height="30" fill="white"/>
</clipPath>
</defs>
</svg>
